<svg data-v-423bf9ae="" xmlns="http://www.w3.org/2000/svg" viewBox="0 0 414 112" class="iconLeft"><!----><!----><!----><g data-v-423bf9ae="" id="b02df476-4e44-44ab-b1c6-bf7f8ed2c55d" fill="#000000" transform="matrix(4.535147549208299,0,0,4.535147549208299,120.97445636069659,11.224496566687982)"><path d="M8.67 5.89L3.75 5.89L3.75 8.05L8.08 8.05L8.08 10.19L3.75 10.19L3.75 13.55L0.98 13.55L0.98 3.75L8.67 3.75L8.67 5.89ZM15.16 5.96L17.82 5.96L17.82 13.55L15.29 13.55L15.29 12.74L15.29 12.74Q14.87 13.20 14.28 13.44L14.28 13.44L14.28 13.44Q13.69 13.68 13.03 13.68L13.03 13.68L13.03 13.68Q11.56 13.68 10.69 12.81L10.69 12.81L10.69 12.81Q9.81 11.94 9.81 10.21L9.81 10.21L9.81 5.96L12.47 5.96L12.47 9.77L12.47 9.77Q12.47 10.63 12.80 11.02L12.80 11.02L12.80 11.02Q13.12 11.41 13.73 11.41L13.73 11.41L13.73 11.41Q14.36 11.41 14.76 10.97L14.76 10.97L14.76 10.97Q15.16 10.53 15.16 9.62L15.16 9.62L15.16 5.96ZM24.47 5.84L24.47 5.84Q25.89 5.84 26.75 6.68L26.75 6.68L26.75 6.68Q27.61 7.52 27.61 9.21L27.61 9.21L27.61 13.55L24.95 13.55L24.95 9.65L24.95 9.65Q24.95 8.09 23.70 8.09L23.70 8.09L23.70 8.09Q23.02 8.09 22.60 8.54L22.60 8.54L22.60 8.54Q22.19 8.99 22.19 9.88L22.19 9.88L22.19 13.55L19.53 13.55L19.53 5.96L22.06 5.96L22.06 6.79L22.06 6.79Q22.51 6.33 23.13 6.08L23.13 6.08L23.13 6.08Q23.74 5.84 24.47 5.84L24.47 5.84ZM34.68 3.16L37.34 3.16L37.34 13.55L34.80 13.55L34.80 12.80L34.80 12.80Q34.06 13.68 32.58 13.68L32.58 13.68L32.58 13.68Q31.54 13.68 30.69 13.20L30.69 13.20L30.69 13.20Q29.83 12.71 29.34 11.82L29.34 11.82L29.34 11.82Q28.84 10.92 28.84 9.74L28.84 9.74L28.84 9.74Q28.84 8.57 29.34 7.68L29.34 7.68L29.34 7.68Q29.83 6.79 30.69 6.31L30.69 6.31L30.69 6.31Q31.54 5.84 32.58 5.84L32.58 5.84L32.58 5.84Q33.94 5.84 34.68 6.62L34.68 6.62L34.68 3.16ZM33.14 11.56L33.14 11.56Q33.82 11.56 34.27 11.08L34.27 11.08L34.27 11.08Q34.72 10.60 34.72 9.74L34.72 9.74L34.72 9.74Q34.72 8.90 34.28 8.43L34.28 8.43L34.28 8.43Q33.84 7.95 33.14 7.95L33.14 7.95L33.14 7.95Q32.44 7.95 31.99 8.43L31.99 8.43L31.99 8.43Q31.54 8.90 31.54 9.74L31.54 9.74L31.54 9.74Q31.54 10.60 31.99 11.08L31.99 11.08L31.99 11.08Q32.44 11.56 33.14 11.56L33.14 11.56ZM42.28 5.84L42.28 5.84Q44.17 5.84 45.16 6.70L45.16 6.70L45.16 6.70Q46.16 7.56 46.16 9.34L46.16 9.34L46.16 13.55L43.68 13.55L43.68 12.57L43.68 12.57Q43.11 13.68 41.44 13.68L41.44 13.68L41.44 13.68Q40.56 13.68 39.91 13.37L39.91 13.37L39.91 13.37Q39.27 13.06 38.94 12.54L38.94 12.54L38.94 12.54Q38.61 12.01 38.61 11.34L38.61 11.34L38.61 11.34Q38.61 10.26 39.44 9.67L39.44 9.67L39.44 9.67Q40.26 9.07 41.99 9.07L41.99 9.07L43.50 9.07L43.50 9.07Q43.43 7.87 41.89 7.87L41.89 7.87L41.89 7.87Q41.34 7.87 40.78 8.04L40.78 8.04L40.78 8.04Q40.22 8.22 39.83 8.53L39.83 8.53L38.93 6.72L38.93 6.72Q39.56 6.30 40.47 6.07L40.47 6.07L40.47 6.07Q41.37 5.84 42.28 5.84L42.28 5.84ZM42.18 12.00L42.18 12.00Q42.64 12.00 42.99 11.77L42.99 11.77L42.99 11.77Q43.34 11.55 43.50 11.12L43.50 11.12L43.50 10.46L42.35 10.46L42.35 10.46Q41.19 10.46 41.19 11.23L41.19 11.23L41.19 11.23Q41.19 11.58 41.45 11.79L41.45 11.79L41.45 11.79Q41.72 12.00 42.18 12.00L42.18 12.00ZM53.30 5.96L55.83 5.96L52.56 13.86L52.56 13.86Q51.98 15.26 51.16 15.83L51.16 15.83L51.16 15.83Q50.33 16.39 49.14 16.39L49.14 16.39L49.14 16.39Q48.54 16.39 47.93 16.20L47.93 16.20L47.93 16.20Q47.32 16.02 46.94 15.71L46.94 15.71L47.87 13.85L47.87 13.85Q48.09 14.06 48.41 14.17L48.41 14.17L48.41 14.17Q48.72 14.29 49.04 14.29L49.04 14.29L49.04 14.29Q49.42 14.29 49.66 14.14L49.66 14.14L49.66 14.14Q49.91 13.99 50.08 13.65L50.08 13.65L46.83 5.96L49.56 5.96L51.42 10.60L53.30 5.96ZM60.33 13.68L60.33 13.68Q59.11 13.68 58.13 13.17L58.13 13.17L58.13 13.17Q57.15 12.67 56.59 11.77L56.59 11.77L56.59 11.77Q56.04 10.88 56.04 9.74L56.04 9.74L56.04 9.74Q56.04 8.62 56.59 7.73L56.59 7.73L56.59 7.73Q57.15 6.83 58.12 6.33L58.12 6.33L58.12 6.33Q59.09 5.84 60.33 5.84L60.33 5.84L60.33 5.84Q61.56 5.84 62.54 6.33L62.54 6.33L62.54 6.33Q63.52 6.83 64.06 7.72L64.06 7.72L64.06 7.72Q64.61 8.61 64.61 9.74L64.61 9.74L64.61 9.74Q64.61 10.88 64.06 11.77L64.06 11.77L64.06 11.77Q63.52 12.67 62.54 13.17L62.54 13.17L62.54 13.17Q61.56 13.68 60.33 13.68L60.33 13.68ZM60.33 11.56L60.33 11.56Q61.03 11.56 61.47 11.08L61.47 11.08L61.47 11.08Q61.92 10.60 61.92 9.74L61.92 9.74L61.92 9.74Q61.92 8.90 61.47 8.43L61.47 8.43L61.47 8.43Q61.03 7.95 60.33 7.95L60.33 7.95L60.33 7.95Q59.63 7.95 59.18 8.43L59.18 8.43L59.18 8.43Q58.73 8.90 58.73 9.74L58.73 9.74L58.73 9.74Q58.73 10.60 59.18 11.08L59.18 11.08L59.18 11.08Q59.63 11.56 60.33 11.56L60.33 11.56Z"></path></g><defs data-v-423bf9ae=""><linearGradient data-v-423bf9ae="" gradientTransform="rotate(25)" id="bf85286e-ccc0-41d3-ad91-e1995bda9c1c" x1="0%" y1="0%" x2="100%" y2="0%"><stop data-v-423bf9ae="" offset="0%" style="stop-color: rgb(8, 91, 32); stop-opacity: 1;"></stop><stop data-v-423bf9ae="" offset="100%" style="stop-color: rgb(65, 226, 150); stop-opacity: 1;"></stop></linearGradient></defs><g data-v-423bf9ae="" id="5b8b06a1-d111-4185-864e-d0ed6b29a160" transform="matrix(1.1111111958821616,0,0,1.1111111958821616,-1.994225846523662,0.4444359673390821)" stroke="none" fill="url(#bf85286e-ccc0-41d3-ad91-e1995bda9c1c)"><circle cx="95.352" cy="37.391" r="2.088"></circle><circle cx="90.311" cy="37.391" r="2.088"></circle><path d="M90.311 44.521a2.088 2.088 0 1 1 2.09-2.085 2.09 2.09 0 0 1-2.09 2.085z"></path><circle cx="90.311" cy="47.478" r="2.088"></circle><circle cx="90.311" cy="67.651" r="2.09"></circle><circle cx="85.273" cy="37.391" r="2.088"></circle><circle cx="85.273" cy="42.433" r="2.088"></circle><circle cx="85.273" cy="47.478" r="2.088"></circle><circle cx="80.232" cy="32.347" r="2.088"></circle><circle cx="80.232" cy="37.391" r="2.088"></circle><circle cx="80.232" cy="42.433" r="2.088"></circle><circle cx="80.232" cy="47.478" r="2.088"></circle><circle cx="80.232" cy="52.521" r="2.087"></circle><path d="M75.193 24.35a2.092 2.092 0 0 1-2.088-2.088 2.09 2.09 0 0 1 2.088-2.089 2.09 2.09 0 0 1 2.09 2.089 2.09 2.09 0 0 1-2.09 2.088z"></path><circle cx="75.193" cy="27.302" r="2.088"></circle><circle cx="75.193" cy="32.347" r="2.088"></circle><circle cx="75.193" cy="37.391" r="2.088"></circle><circle cx="75.193" cy="42.433" r="2.088"></circle><circle cx="75.193" cy="47.478" r="2.088"></circle><circle cx="75.193" cy="52.521" r="2.087"></circle><circle cx="75.193" cy="57.563" r="2.088"></circle><circle cx="75.193" cy="62.606" r="2.087"></circle><circle cx="75.193" cy="67.651" r="2.09"></circle><circle cx="70.154" cy="12.173" r="2.089"></circle><circle cx="70.154" cy="17.217" r="2.088"></circle><path d="M70.154 24.35a2.09 2.09 0 1 1 2.089-2.088c0 1.15-.932 2.088-2.089 2.088z"></path><circle cx="70.154" cy="27.302" r="2.088"></circle><circle cx="70.154" cy="32.347" r="2.088"></circle><circle cx="70.154" cy="37.391" r="2.088"></circle><path d="M70.154 44.521a2.088 2.088 0 1 1 2.089-2.085 2.085 2.085 0 0 1-2.089 2.085z"></path><circle cx="70.154" cy="47.478" r="2.088"></circle><circle cx="70.154" cy="52.521" r="2.087"></circle><circle cx="70.154" cy="57.563" r="2.088"></circle><circle cx="70.154" cy="62.606" r="2.087"></circle><circle cx="70.154" cy="67.651" r="2.09"></circle><g><circle cx="65.117" cy="12.173" r="2.089"></circle><circle cx="65.117" cy="17.217" r="2.088"></circle><path d="M65.117 24.35a2.088 2.088 0 1 1 0-4.177 2.088 2.088 0 0 1 0 4.177z"></path><circle cx="65.117" cy="27.302" r="2.088"></circle><circle cx="65.117" cy="32.347" r="2.088"></circle><circle cx="65.117" cy="37.391" r="2.088"></circle><path d="M65.117 44.521a2.086 2.086 0 1 1 0-4.175 2.087 2.087 0 1 1 0 4.175z"></path><circle cx="65.117" cy="47.478" r="2.088"></circle><circle cx="65.117" cy="52.521" r="2.087"></circle><circle cx="65.117" cy="57.563" r="2.088"></circle><circle cx="65.117" cy="62.606" r="2.087"></circle><circle cx="65.117" cy="67.651" r="2.09"></circle></g><g><circle cx="60.079" cy="7.13" r="2.088"></circle><circle cx="60.079" cy="12.173" r="2.089"></circle><circle cx="60.079" cy="17.217" r="2.088"></circle><path d="M60.079 24.35a2.09 2.09 0 0 1 0-4.177 2.089 2.089 0 0 1 0 4.177z"></path><circle cx="60.079" cy="27.302" r="2.088"></circle><circle cx="60.079" cy="32.347" r="2.088"></circle><circle cx="60.079" cy="37.391" r="2.088"></circle><circle cx="60.079" cy="42.433" r="2.088"></circle><circle cx="60.079" cy="47.478" r="2.088"></circle><circle cx="60.079" cy="52.521" r="2.087"></circle><circle cx="60.079" cy="57.563" r="2.088"></circle><circle cx="60.079" cy="62.606" r="2.087"></circle><circle cx="60.079" cy="67.651" r="2.09"></circle></g><g><circle cx="55.039" cy="7.13" r="2.088"></circle><circle cx="55.039" cy="12.173" r="2.089"></circle><circle cx="55.039" cy="17.217" r="2.088"></circle><path d="M55.039 24.35a2.092 2.092 0 0 1-2.089-2.088 2.09 2.09 0 0 1 2.089-2.089 2.09 2.09 0 0 1 2.088 2.089c0 1.15-.938 2.088-2.088 2.088z"></path><circle cx="55.039" cy="27.302" r="2.088"></circle><circle cx="55.039" cy="32.347" r="2.088"></circle><circle cx="55.039" cy="37.391" r="2.088"></circle><circle cx="55.039" cy="42.433" r="2.088"></circle><circle cx="55.039" cy="47.478" r="2.088"></circle><circle cx="55.039" cy="52.521" r="2.087"></circle><circle cx="55.039" cy="57.563" r="2.088"></circle><circle cx="55.039" cy="62.606" r="2.087"></circle><circle cx="55.039" cy="67.651" r="2.09"></circle></g><g><circle cx="50.001" cy="7.13" r="2.088"></circle><circle cx="50.001" cy="12.173" r="2.089"></circle><circle cx="50.001" cy="17.217" r="2.088"></circle><path d="M50.001 24.35a2.09 2.09 0 1 1 2.088-2.088 2.09 2.09 0 0 1-2.088 2.088z"></path><circle cx="50.001" cy="27.302" r="2.088"></circle><circle cx="50.001" cy="32.347" r="2.088"></circle><circle cx="50.001" cy="37.391" r="2.088"></circle><circle cx="50.001" cy="42.433" r="2.088"></circle><circle cx="50.001" cy="47.478" r="2.088"></circle><circle cx="50.001" cy="52.521" r="2.087"></circle><circle cx="50.001" cy="57.563" r="2.088"></circle><circle cx="50.001" cy="62.606" r="2.087"></circle><circle cx="50.001" cy="67.651" r="2.09"></circle></g><g><circle cx="90.311" cy="72.694" r="2.087"></circle><circle cx="90.311" cy="77.737" r="2.09"></circle><circle cx="90.311" cy="82.78" r="2.087"></circle></g><g><circle cx="85.273" cy="72.694" r="2.087"></circle><circle cx="85.273" cy="77.737" r="2.09"></circle><circle cx="85.273" cy="82.78" r="2.087"></circle><circle cx="85.273" cy="87.826" r="2.088"></circle></g><g><circle cx="75.193" cy="72.694" r="2.087"></circle><circle cx="75.193" cy="77.737" r="2.09"></circle></g><g><circle cx="70.154" cy="72.694" r="2.087"></circle><circle cx="70.154" cy="77.737" r="2.09"></circle><circle cx="70.154" cy="82.78" r="2.087"></circle><circle cx="70.154" cy="87.826" r="2.088"></circle></g><g><circle cx="65.117" cy="72.694" r="2.087"></circle><circle cx="65.117" cy="77.737" r="2.09"></circle><circle cx="65.117" cy="82.78" r="2.087"></circle><circle cx="65.117" cy="87.826" r="2.088"></circle><circle cx="65.117" cy="92.867" r="2.087"></circle></g><g><circle cx="60.079" cy="72.694" r="2.087"></circle><circle cx="60.079" cy="77.737" r="2.09"></circle><circle cx="60.079" cy="82.78" r="2.087"></circle><circle cx="60.079" cy="87.826" r="2.088"></circle><circle cx="60.079" cy="92.867" r="2.087"></circle><circle cx="60.079" cy="97.912" r="2.088"></circle></g><g><circle cx="55.039" cy="72.694" r="2.087"></circle><circle cx="55.039" cy="77.737" r="2.09"></circle><circle cx="55.039" cy="82.78" r="2.087"></circle><circle cx="55.039" cy="87.826" r="2.088"></circle><circle cx="55.039" cy="92.867" r="2.087"></circle><circle cx="55.039" cy="97.912" r="2.088"></circle></g><g><circle cx="50.001" cy="72.694" r="2.087"></circle><circle cx="50.001" cy="77.737" r="2.09"></circle><circle cx="50.001" cy="82.78" r="2.087"></circle><circle cx="50.001" cy="87.826" r="2.088"></circle><circle cx="50.001" cy="92.867" r="2.087"></circle><circle cx="50.001" cy="97.912" r="2.088"></circle></g><g><circle cx="44.961" cy="7.13" r="2.088"></circle><circle cx="44.961" cy="12.173" r="2.089"></circle><circle cx="44.961" cy="17.217" r="2.088"></circle><path d="M44.961 24.35a2.089 2.089 0 1 1 .003-4.177 2.089 2.089 0 0 1-.003 4.177z"></path><circle cx="44.961" cy="27.302" r="2.088"></circle><circle cx="44.961" cy="32.347" r="2.088"></circle><circle cx="44.961" cy="37.391" r="2.088"></circle><circle cx="44.961" cy="42.433" r="2.088"></circle><circle cx="44.961" cy="47.478" r="2.088"></circle><circle cx="44.961" cy="52.521" r="2.087"></circle><circle cx="44.961" cy="57.563" r="2.088"></circle><circle cx="44.961" cy="62.606" r="2.087"></circle><circle cx="44.961" cy="67.651" r="2.09"></circle></g><g><circle cx="39.923" cy="2.088" r="2.088"></circle><circle cx="39.923" cy="7.13" r="2.088"></circle><circle cx="39.923" cy="12.173" r="2.089"></circle><circle cx="39.923" cy="17.217" r="2.088"></circle><path d="M39.923 24.35a2.09 2.09 0 0 1 0-4.177 2.088 2.088 0 0 1 0 4.177z"></path><circle cx="39.923" cy="27.302" r="2.088"></circle><circle cx="39.923" cy="32.347" r="2.088"></circle><circle cx="39.923" cy="37.391" r="2.088"></circle><circle cx="39.923" cy="42.433" r="2.088"></circle><circle cx="39.923" cy="47.478" r="2.088"></circle><circle cx="39.923" cy="52.521" r="2.087"></circle><circle cx="39.923" cy="57.563" r="2.088"></circle></g><g><circle cx="34.882" cy="2.088" r="2.088"></circle><circle cx="34.882" cy="7.13" r="2.088"></circle><circle cx="34.882" cy="12.173" r="2.089"></circle><circle cx="34.882" cy="17.217" r="2.088"></circle><path d="M34.882 24.35a2.09 2.09 0 0 1 0-4.177 2.09 2.09 0 0 1 2.089 2.089c0 1.15-.936 2.088-2.089 2.088z"></path><circle cx="34.882" cy="27.302" r="2.088"></circle><circle cx="34.882" cy="32.347" r="2.088"></circle><circle cx="34.882" cy="37.391" r="2.088"></circle><path d="M34.882 44.521a2.087 2.087 0 1 1 0-4.175 2.087 2.087 0 0 1 0 4.175z"></path><circle cx="34.882" cy="47.478" r="2.088"></circle></g><g><path d="M29.845 4.176a2.088 2.088 0 1 1 0 0z"></path><circle cx="29.845" cy="7.13" r="2.088"></circle><circle cx="29.845" cy="12.173" r="2.089"></circle><circle cx="29.845" cy="17.217" r="2.088"></circle><path d="M29.845 24.35a2.089 2.089 0 0 1 0-4.177c1.152 0 2.085.935 2.085 2.089a2.087 2.087 0 0 1-2.085 2.088z"></path><circle cx="29.845" cy="27.302" r="2.088"></circle><circle cx="29.845" cy="32.347" r="2.088"></circle><circle cx="29.845" cy="37.391" r="2.088"></circle><circle cx="29.845" cy="42.433" r="2.088"></circle></g><g><circle cx="24.805" cy="2.088" r="2.088"></circle><circle cx="24.805" cy="7.13" r="2.088"></circle><circle cx="24.805" cy="12.173" r="2.089"></circle><circle cx="24.805" cy="17.217" r="2.088"></circle><path d="M24.805 24.35a2.089 2.089 0 1 1 .003-4.177 2.089 2.089 0 0 1-.003 4.177z"></path><circle cx="24.805" cy="27.302" r="2.088"></circle><circle cx="24.805" cy="32.347" r="2.088"></circle><circle cx="24.805" cy="37.391" r="2.088"></circle><circle cx="24.805" cy="42.433" r="2.088"></circle></g><g><circle cx="19.767" cy="2.088" r="2.088"></circle><circle cx="19.767" cy="7.13" r="2.088"></circle><circle cx="19.767" cy="12.173" r="2.089"></circle><circle cx="19.767" cy="17.217" r="2.088"></circle><path d="M19.767 24.35a2.09 2.09 0 1 1 2.088-2.088 2.09 2.09 0 0 1-2.088 2.088z"></path><circle cx="19.767" cy="27.302" r="2.088"></circle><circle cx="19.767" cy="32.347" r="2.088"></circle><circle cx="19.767" cy="37.391" r="2.088"></circle><circle cx="19.767" cy="42.433" r="2.088"></circle><circle cx="19.767" cy="47.478" r="2.088"></circle></g><g><path d="M14.728 9.217a2.087 2.087 0 1 1-.001-4.175 2.087 2.087 0 0 1 .001 4.175zM14.728 14.262a2.088 2.088 0 1 1 0-4.176 2.088 2.088 0 0 1 0 4.176zM14.728 19.305a2.088 2.088 0 1 1 0-4.175 2.088 2.088 0 0 1 0 4.175zM14.728 24.35a2.09 2.09 0 0 1 0-4.177 2.09 2.09 0 0 1 0 4.177zM14.728 29.39a2.089 2.089 0 1 1 2.087-2.085 2.087 2.087 0 0 1-2.087 2.085zM14.728 34.435a2.088 2.088 0 1 1 0-4.176 2.088 2.088 0 0 1 0 4.176zM14.728 39.479a2.089 2.089 0 0 1 0-4.176 2.088 2.088 0 0 1 0 4.176zM14.728 44.521a2.089 2.089 0 1 1 2.087-2.085 2.087 2.087 0 0 1-2.087 2.085zM14.728 49.566a2.089 2.089 0 0 1 0-4.176 2.088 2.088 0 0 1 0 4.176z"></path></g><g><circle cx="9.688" cy="17.217" r="2.088"></circle><path d="M9.688 24.35a2.088 2.088 0 1 1 2.09-2.088c0 1.15-.937 2.088-2.09 2.088zM9.688 29.39a2.084 2.084 0 0 1-2.085-2.085 2.087 2.087 0 1 1 4.175 0 2.088 2.088 0 0 1-2.09 2.085z"></path><circle cx="9.688" cy="32.347" r="2.088"></circle><circle cx="9.688" cy="37.391" r="2.088"></circle><path d="M9.688 44.521a2.084 2.084 0 0 1-2.085-2.085 2.087 2.087 0 1 1 4.175 0 2.088 2.088 0 0 1-2.09 2.085z"></path></g><g><path d="M4.651 24.35a2.089 2.089 0 1 1 .002-4.178 2.089 2.089 0 0 1-.002 4.178z"></path><circle cx="4.651" cy="27.302" r="2.088"></circle><circle cx="4.651" cy="32.347" r="2.088"></circle><circle cx="4.651" cy="37.391" r="2.088"></circle></g><g><circle cx="44.961" cy="72.694" r="2.087"></circle><circle cx="44.961" cy="77.737" r="2.09"></circle><circle cx="44.961" cy="82.78" r="2.087"></circle><circle cx="44.961" cy="87.826" r="2.088"></circle></g></g><!----></svg>