<svg data-v-423bf9ae="" xmlns="http://www.w3.org/2000/svg" viewBox="0 0 56.9261949976963 60" class="icon"><!----><!----><!----><!----><g data-v-423bf9ae="" id="b68bc9d5-7687-46f1-a88f-e8e699bd1444" transform="matrix(0.5999999542236363,0,0,0.5999999542236363,-1.5378005027086346,0)" stroke="none" fill="white"><circle cx="95.352" cy="37.391" r="2.088"></circle><circle cx="90.311" cy="37.391" r="2.088"></circle><path d="M90.311 44.521a2.088 2.088 0 1 1 2.09-2.085 2.09 2.09 0 0 1-2.09 2.085z"></path><circle cx="90.311" cy="47.478" r="2.088"></circle><circle cx="90.311" cy="67.651" r="2.09"></circle><circle cx="85.273" cy="37.391" r="2.088"></circle><circle cx="85.273" cy="42.433" r="2.088"></circle><circle cx="85.273" cy="47.478" r="2.088"></circle><circle cx="80.232" cy="32.347" r="2.088"></circle><circle cx="80.232" cy="37.391" r="2.088"></circle><circle cx="80.232" cy="42.433" r="2.088"></circle><circle cx="80.232" cy="47.478" r="2.088"></circle><circle cx="80.232" cy="52.521" r="2.087"></circle><path d="M75.193 24.35a2.092 2.092 0 0 1-2.088-2.088 2.09 2.09 0 0 1 2.088-2.089 2.09 2.09 0 0 1 2.09 2.089 2.09 2.09 0 0 1-2.09 2.088z"></path><circle cx="75.193" cy="27.302" r="2.088"></circle><circle cx="75.193" cy="32.347" r="2.088"></circle><circle cx="75.193" cy="37.391" r="2.088"></circle><circle cx="75.193" cy="42.433" r="2.088"></circle><circle cx="75.193" cy="47.478" r="2.088"></circle><circle cx="75.193" cy="52.521" r="2.087"></circle><circle cx="75.193" cy="57.563" r="2.088"></circle><circle cx="75.193" cy="62.606" r="2.087"></circle><circle cx="75.193" cy="67.651" r="2.09"></circle><circle cx="70.154" cy="12.173" r="2.089"></circle><circle cx="70.154" cy="17.217" r="2.088"></circle><path d="M70.154 24.35a2.09 2.09 0 1 1 2.089-2.088c0 1.15-.932 2.088-2.089 2.088z"></path><circle cx="70.154" cy="27.302" r="2.088"></circle><circle cx="70.154" cy="32.347" r="2.088"></circle><circle cx="70.154" cy="37.391" r="2.088"></circle><path d="M70.154 44.521a2.088 2.088 0 1 1 2.089-2.085 2.085 2.085 0 0 1-2.089 2.085z"></path><circle cx="70.154" cy="47.478" r="2.088"></circle><circle cx="70.154" cy="52.521" r="2.087"></circle><circle cx="70.154" cy="57.563" r="2.088"></circle><circle cx="70.154" cy="62.606" r="2.087"></circle><circle cx="70.154" cy="67.651" r="2.09"></circle><g><circle cx="65.117" cy="12.173" r="2.089"></circle><circle cx="65.117" cy="17.217" r="2.088"></circle><path d="M65.117 24.35a2.088 2.088 0 1 1 0-4.177 2.088 2.088 0 0 1 0 4.177z"></path><circle cx="65.117" cy="27.302" r="2.088"></circle><circle cx="65.117" cy="32.347" r="2.088"></circle><circle cx="65.117" cy="37.391" r="2.088"></circle><path d="M65.117 44.521a2.086 2.086 0 1 1 0-4.175 2.087 2.087 0 1 1 0 4.175z"></path><circle cx="65.117" cy="47.478" r="2.088"></circle><circle cx="65.117" cy="52.521" r="2.087"></circle><circle cx="65.117" cy="57.563" r="2.088"></circle><circle cx="65.117" cy="62.606" r="2.087"></circle><circle cx="65.117" cy="67.651" r="2.09"></circle></g><g><circle cx="60.079" cy="7.13" r="2.088"></circle><circle cx="60.079" cy="12.173" r="2.089"></circle><circle cx="60.079" cy="17.217" r="2.088"></circle><path d="M60.079 24.35a2.09 2.09 0 0 1 0-4.177 2.089 2.089 0 0 1 0 4.177z"></path><circle cx="60.079" cy="27.302" r="2.088"></circle><circle cx="60.079" cy="32.347" r="2.088"></circle><circle cx="60.079" cy="37.391" r="2.088"></circle><circle cx="60.079" cy="42.433" r="2.088"></circle><circle cx="60.079" cy="47.478" r="2.088"></circle><circle cx="60.079" cy="52.521" r="2.087"></circle><circle cx="60.079" cy="57.563" r="2.088"></circle><circle cx="60.079" cy="62.606" r="2.087"></circle><circle cx="60.079" cy="67.651" r="2.09"></circle></g><g><circle cx="55.039" cy="7.13" r="2.088"></circle><circle cx="55.039" cy="12.173" r="2.089"></circle><circle cx="55.039" cy="17.217" r="2.088"></circle><path d="M55.039 24.35a2.092 2.092 0 0 1-2.089-2.088 2.09 2.09 0 0 1 2.089-2.089 2.09 2.09 0 0 1 2.088 2.089c0 1.15-.938 2.088-2.088 2.088z"></path><circle cx="55.039" cy="27.302" r="2.088"></circle><circle cx="55.039" cy="32.347" r="2.088"></circle><circle cx="55.039" cy="37.391" r="2.088"></circle><circle cx="55.039" cy="42.433" r="2.088"></circle><circle cx="55.039" cy="47.478" r="2.088"></circle><circle cx="55.039" cy="52.521" r="2.087"></circle><circle cx="55.039" cy="57.563" r="2.088"></circle><circle cx="55.039" cy="62.606" r="2.087"></circle><circle cx="55.039" cy="67.651" r="2.09"></circle></g><g><circle cx="50.001" cy="7.13" r="2.088"></circle><circle cx="50.001" cy="12.173" r="2.089"></circle><circle cx="50.001" cy="17.217" r="2.088"></circle><path d="M50.001 24.35a2.09 2.09 0 1 1 2.088-2.088 2.09 2.09 0 0 1-2.088 2.088z"></path><circle cx="50.001" cy="27.302" r="2.088"></circle><circle cx="50.001" cy="32.347" r="2.088"></circle><circle cx="50.001" cy="37.391" r="2.088"></circle><circle cx="50.001" cy="42.433" r="2.088"></circle><circle cx="50.001" cy="47.478" r="2.088"></circle><circle cx="50.001" cy="52.521" r="2.087"></circle><circle cx="50.001" cy="57.563" r="2.088"></circle><circle cx="50.001" cy="62.606" r="2.087"></circle><circle cx="50.001" cy="67.651" r="2.09"></circle></g><g><circle cx="90.311" cy="72.694" r="2.087"></circle><circle cx="90.311" cy="77.737" r="2.09"></circle><circle cx="90.311" cy="82.78" r="2.087"></circle></g><g><circle cx="85.273" cy="72.694" r="2.087"></circle><circle cx="85.273" cy="77.737" r="2.09"></circle><circle cx="85.273" cy="82.78" r="2.087"></circle><circle cx="85.273" cy="87.826" r="2.088"></circle></g><g><circle cx="75.193" cy="72.694" r="2.087"></circle><circle cx="75.193" cy="77.737" r="2.09"></circle></g><g><circle cx="70.154" cy="72.694" r="2.087"></circle><circle cx="70.154" cy="77.737" r="2.09"></circle><circle cx="70.154" cy="82.78" r="2.087"></circle><circle cx="70.154" cy="87.826" r="2.088"></circle></g><g><circle cx="65.117" cy="72.694" r="2.087"></circle><circle cx="65.117" cy="77.737" r="2.09"></circle><circle cx="65.117" cy="82.78" r="2.087"></circle><circle cx="65.117" cy="87.826" r="2.088"></circle><circle cx="65.117" cy="92.867" r="2.087"></circle></g><g><circle cx="60.079" cy="72.694" r="2.087"></circle><circle cx="60.079" cy="77.737" r="2.09"></circle><circle cx="60.079" cy="82.78" r="2.087"></circle><circle cx="60.079" cy="87.826" r="2.088"></circle><circle cx="60.079" cy="92.867" r="2.087"></circle><circle cx="60.079" cy="97.912" r="2.088"></circle></g><g><circle cx="55.039" cy="72.694" r="2.087"></circle><circle cx="55.039" cy="77.737" r="2.09"></circle><circle cx="55.039" cy="82.78" r="2.087"></circle><circle cx="55.039" cy="87.826" r="2.088"></circle><circle cx="55.039" cy="92.867" r="2.087"></circle><circle cx="55.039" cy="97.912" r="2.088"></circle></g><g><circle cx="50.001" cy="72.694" r="2.087"></circle><circle cx="50.001" cy="77.737" r="2.09"></circle><circle cx="50.001" cy="82.78" r="2.087"></circle><circle cx="50.001" cy="87.826" r="2.088"></circle><circle cx="50.001" cy="92.867" r="2.087"></circle><circle cx="50.001" cy="97.912" r="2.088"></circle></g><g><circle cx="44.961" cy="7.13" r="2.088"></circle><circle cx="44.961" cy="12.173" r="2.089"></circle><circle cx="44.961" cy="17.217" r="2.088"></circle><path d="M44.961 24.35a2.089 2.089 0 1 1 .003-4.177 2.089 2.089 0 0 1-.003 4.177z"></path><circle cx="44.961" cy="27.302" r="2.088"></circle><circle cx="44.961" cy="32.347" r="2.088"></circle><circle cx="44.961" cy="37.391" r="2.088"></circle><circle cx="44.961" cy="42.433" r="2.088"></circle><circle cx="44.961" cy="47.478" r="2.088"></circle><circle cx="44.961" cy="52.521" r="2.087"></circle><circle cx="44.961" cy="57.563" r="2.088"></circle><circle cx="44.961" cy="62.606" r="2.087"></circle><circle cx="44.961" cy="67.651" r="2.09"></circle></g><g><circle cx="39.923" cy="2.088" r="2.088"></circle><circle cx="39.923" cy="7.13" r="2.088"></circle><circle cx="39.923" cy="12.173" r="2.089"></circle><circle cx="39.923" cy="17.217" r="2.088"></circle><path d="M39.923 24.35a2.09 2.09 0 0 1 0-4.177 2.088 2.088 0 0 1 0 4.177z"></path><circle cx="39.923" cy="27.302" r="2.088"></circle><circle cx="39.923" cy="32.347" r="2.088"></circle><circle cx="39.923" cy="37.391" r="2.088"></circle><circle cx="39.923" cy="42.433" r="2.088"></circle><circle cx="39.923" cy="47.478" r="2.088"></circle><circle cx="39.923" cy="52.521" r="2.087"></circle><circle cx="39.923" cy="57.563" r="2.088"></circle></g><g><circle cx="34.882" cy="2.088" r="2.088"></circle><circle cx="34.882" cy="7.13" r="2.088"></circle><circle cx="34.882" cy="12.173" r="2.089"></circle><circle cx="34.882" cy="17.217" r="2.088"></circle><path d="M34.882 24.35a2.09 2.09 0 0 1 0-4.177 2.09 2.09 0 0 1 2.089 2.089c0 1.15-.936 2.088-2.089 2.088z"></path><circle cx="34.882" cy="27.302" r="2.088"></circle><circle cx="34.882" cy="32.347" r="2.088"></circle><circle cx="34.882" cy="37.391" r="2.088"></circle><path d="M34.882 44.521a2.087 2.087 0 1 1 0-4.175 2.087 2.087 0 0 1 0 4.175z"></path><circle cx="34.882" cy="47.478" r="2.088"></circle></g><g><path d="M29.845 4.176a2.088 2.088 0 1 1 0 0z"></path><circle cx="29.845" cy="7.13" r="2.088"></circle><circle cx="29.845" cy="12.173" r="2.089"></circle><circle cx="29.845" cy="17.217" r="2.088"></circle><path d="M29.845 24.35a2.089 2.089 0 0 1 0-4.177c1.152 0 2.085.935 2.085 2.089a2.087 2.087 0 0 1-2.085 2.088z"></path><circle cx="29.845" cy="27.302" r="2.088"></circle><circle cx="29.845" cy="32.347" r="2.088"></circle><circle cx="29.845" cy="37.391" r="2.088"></circle><circle cx="29.845" cy="42.433" r="2.088"></circle></g><g><circle cx="24.805" cy="2.088" r="2.088"></circle><circle cx="24.805" cy="7.13" r="2.088"></circle><circle cx="24.805" cy="12.173" r="2.089"></circle><circle cx="24.805" cy="17.217" r="2.088"></circle><path d="M24.805 24.35a2.089 2.089 0 1 1 .003-4.177 2.089 2.089 0 0 1-.003 4.177z"></path><circle cx="24.805" cy="27.302" r="2.088"></circle><circle cx="24.805" cy="32.347" r="2.088"></circle><circle cx="24.805" cy="37.391" r="2.088"></circle><circle cx="24.805" cy="42.433" r="2.088"></circle></g><g><circle cx="19.767" cy="2.088" r="2.088"></circle><circle cx="19.767" cy="7.13" r="2.088"></circle><circle cx="19.767" cy="12.173" r="2.089"></circle><circle cx="19.767" cy="17.217" r="2.088"></circle><path d="M19.767 24.35a2.09 2.09 0 1 1 2.088-2.088 2.09 2.09 0 0 1-2.088 2.088z"></path><circle cx="19.767" cy="27.302" r="2.088"></circle><circle cx="19.767" cy="32.347" r="2.088"></circle><circle cx="19.767" cy="37.391" r="2.088"></circle><circle cx="19.767" cy="42.433" r="2.088"></circle><circle cx="19.767" cy="47.478" r="2.088"></circle></g><g><path d="M14.728 9.217a2.087 2.087 0 1 1-.001-4.175 2.087 2.087 0 0 1 .001 4.175zM14.728 14.262a2.088 2.088 0 1 1 0-4.176 2.088 2.088 0 0 1 0 4.176zM14.728 19.305a2.088 2.088 0 1 1 0-4.175 2.088 2.088 0 0 1 0 4.175zM14.728 24.35a2.09 2.09 0 0 1 0-4.177 2.09 2.09 0 0 1 0 4.177zM14.728 29.39a2.089 2.089 0 1 1 2.087-2.085 2.087 2.087 0 0 1-2.087 2.085zM14.728 34.435a2.088 2.088 0 1 1 0-4.176 2.088 2.088 0 0 1 0 4.176zM14.728 39.479a2.089 2.089 0 0 1 0-4.176 2.088 2.088 0 0 1 0 4.176zM14.728 44.521a2.089 2.089 0 1 1 2.087-2.085 2.087 2.087 0 0 1-2.087 2.085zM14.728 49.566a2.089 2.089 0 0 1 0-4.176 2.088 2.088 0 0 1 0 4.176z"></path></g><g><circle cx="9.688" cy="17.217" r="2.088"></circle><path d="M9.688 24.35a2.088 2.088 0 1 1 2.09-2.088c0 1.15-.937 2.088-2.09 2.088zM9.688 29.39a2.084 2.084 0 0 1-2.085-2.085 2.087 2.087 0 1 1 4.175 0 2.088 2.088 0 0 1-2.09 2.085z"></path><circle cx="9.688" cy="32.347" r="2.088"></circle><circle cx="9.688" cy="37.391" r="2.088"></circle><path d="M9.688 44.521a2.084 2.084 0 0 1-2.085-2.085 2.087 2.087 0 1 1 4.175 0 2.088 2.088 0 0 1-2.09 2.085z"></path></g><g><path d="M4.651 24.35a2.089 2.089 0 1 1 .002-4.178 2.089 2.089 0 0 1-.002 4.178z"></path><circle cx="4.651" cy="27.302" r="2.088"></circle><circle cx="4.651" cy="32.347" r="2.088"></circle><circle cx="4.651" cy="37.391" r="2.088"></circle></g><g><circle cx="44.961" cy="72.694" r="2.087"></circle><circle cx="44.961" cy="77.737" r="2.09"></circle><circle cx="44.961" cy="82.78" r="2.087"></circle><circle cx="44.961" cy="87.826" r="2.088"></circle></g></g><!----></svg>